<svg width="20" height="20" viewBox="0 0 20 20" fill="none" xmlns="http://www.w3.org/2000/svg">
<path d="M11.8762 12.4571L8.57143 10.4762V4.7619H10V9.7619L12.9333 11.5048C12.5429 11.7714 12.181 12.0952 11.8762 12.4571ZM10.5524 17.0667C10.2095 17.1143 9.87619 17.1429 9.52381 17.1429C5.31429 17.1429 1.90476 13.7333 1.90476 9.52381C1.90476 5.31429 5.31429 1.90476 9.52381 1.90476C13.7333 1.90476 17.1429 5.31429 17.1429 9.52381C17.1429 9.87619 17.1143 10.2095 17.0667 10.5524C17.7238 10.6476 18.3333 10.8571 18.8952 11.1619C18.9905 10.6286 19.0476 10.0857 19.0476 9.52381C19.0476 4.28571 14.7619 0 9.52381 0C4.28571 0 0 4.28571 0 9.52381C0 14.7619 4.25714 19.0476 9.52381 19.0476C10.0857 19.0476 10.6286 18.9905 11.1619 18.8952C10.8571 18.3333 10.6476 17.7238 10.5524 17.0667ZM15.2381 12.381V15.2381H12.381V17.1429H15.2381V20H17.1429V17.1429H20V15.2381H17.1429V12.381H15.2381Z" fill="#757575"/>
</svg>
