<svg width="18" height="20" viewBox="0 0 18 20" fill="none" xmlns="http://www.w3.org/2000/svg">
<path d="M12.4472 17.2143L12.3159 17.163H12.1748H2.16152C1.77696 17.1484 1.41337 16.9832 1.14929 16.7029C0.882829 16.42 0.739447 16.043 0.750606 15.6546L0.750915 15.6438V15.633V2.27739V2.26692L0.750623 2.25644C0.739778 1.86833 0.883287 1.49175 1.14968 1.20929C1.41372 0.929324 1.77711 0.764464 2.1614 0.75H15.3396C15.724 0.764463 16.0874 0.929403 16.3515 1.20949C16.6179 1.49208 16.7613 1.86881 16.7503 2.25702L16.75 2.26764V2.27826V13.7809V13.781L16.7508 18.8993C16.5279 18.8118 16.2764 18.713 16.0043 18.6063C14.9701 18.2004 13.638 17.6785 12.4472 17.2143Z" stroke="#8A8A8A" stroke-width="1.5"/>
<path d="M13.9754 12.5173L13.9764 12.5163C13.9916 12.5413 14.0025 12.5778 13.9995 12.6206L13.9993 12.6247C13.997 12.6615 13.9842 12.6901 13.9702 12.7085C12.478 13.9685 10.6385 14.6123 8.76969 14.5387L8.75004 14.5379L8.73039 14.5387C6.8616 14.6121 5.02215 13.9682 3.53011 12.7081C3.51598 12.6898 3.50301 12.6611 3.50074 12.6241L3.50075 12.6241L3.50047 12.62C3.49756 12.5784 3.50839 12.5414 3.52453 12.5153L3.52497 12.5158L3.54517 12.5323C5.03868 13.754 6.87331 14.3889 8.74885 14.3239C10.6263 14.3977 12.4643 13.7624 13.9554 12.5338L13.9754 12.5173Z" stroke="#8A8A8A"/>
</svg>
