<svg width="18" height="22" viewBox="0 0 18 22" fill="none" xmlns="http://www.w3.org/2000/svg">
<path d="M15 8C15 6.4087 14.3679 4.88258 13.2426 3.75736C12.1174 2.63214 10.5913 2 9 2C7.4087 2 5.88258 2.63214 4.75736 3.75736C3.63214 4.88258 3 6.4087 3 8V16H15V8ZM17 16.667L17.4 17.2C17.4557 17.2743 17.4896 17.3626 17.498 17.4551C17.5063 17.5476 17.4887 17.6406 17.4472 17.7236C17.4057 17.8067 17.3419 17.8765 17.2629 17.9253C17.1839 17.9741 17.0929 18 17 18H1C0.907144 18 0.816123 17.9741 0.737135 17.9253C0.658147 17.8765 0.594313 17.8067 0.552787 17.7236C0.51126 17.6406 0.493682 17.5476 0.502021 17.4551C0.51036 17.3626 0.544287 17.2743 0.6 17.2L1 16.667V8C1 5.87827 1.84286 3.84344 3.34315 2.34315C4.84344 0.842855 6.87827 0 9 0C11.1217 0 13.1566 0.842855 14.6569 2.34315C16.1571 3.84344 17 5.87827 17 8V16.667ZM6.5 19H11.5C11.5 19.663 11.2366 20.2989 10.7678 20.7678C10.2989 21.2366 9.66304 21.5 9 21.5C8.33696 21.5 7.70107 21.2366 7.23223 20.7678C6.76339 20.2989 6.5 19.663 6.5 19Z" fill="#757575"/>
</svg>
