<svg width="34" height="40" viewBox="0 0 34 40" fill="none" xmlns="http://www.w3.org/2000/svg">
<path d="M17.2873 39.9966C21.7164 40.0812 26.0249 38.5659 29.4075 35.7341L29.5807 35.5913L29.748 35.4542C31.6479 33.7733 32.9679 31.5453 33.5226 29.0833V29.0833V29.0147C32.8544 30.0374 31.9381 30.8781 30.8574 31.4599C29.7766 32.0418 28.5658 32.3464 27.3355 32.3459C23.2666 32.3459 19.9653 30.3403 19.9653 25.0779V8.99353C19.9653 3.58827 15.7117 0 10.2518 0C4.79197 0 0.203613 3.58827 0.203613 8.99353V25.3807C0.206337 26.4562 0.343983 27.5272 0.613391 28.569C0.642249 28.7176 0.688421 28.8547 0.723051 28.9976C0.75768 29.1404 0.774994 29.2033 0.809623 29.3061C2.64497 36.0655 9.20719 39.9966 17.0449 39.9966H17.2873Z" fill="url(#paint0_linear_2_451)"/>
<defs>
<linearGradient id="paint0_linear_2_451" x1="16.866" y1="0.371397" x2="16.866" y2="39.9052" gradientUnits="userSpaceOnUse">
<stop stop-color="#43F49F"/>
<stop offset="1" stop-color="#1ED292"/>
</linearGradient>
</defs>
</svg>
